<?xml version="1.0"?>
<svg width="1000" height="1000" xmlns="http://www.w3.org/2000/svg" xmlns:svg="http://www.w3.org/2000/svg">
 <g>
  <title>Layer 1</title>
  <path fill="none" d="m0,0l485.350006,0c-75.77002,2.29 -151.050018,21.709999 -218.080017,57.209999c-59.98999,31.489998 -113.349991,75.439995 -155.999992,128.060005c-46.979996,57.849991 -80.789997,126.349991 -97.919987,198.889999c-7.88,33.160004 -12.21,67.130005 -13.35,101.190002l0,-485.349996l-0.00001,-0.00001z" id="svg_1"/>
  <path fill="#00ffff" d="m485.350006,0l29.290009,0c45.130005,1.48 90.130005,8.7 133.279968,22.1c75.73999,23.35 145.690002,65.169996 202.179993,120.76c49.690002,48.559998 89.050049,107.639999 114.740051,172.199997c21.629944,54.130005 33.339966,112.100006 35.159973,170.339996l0,29.209991c-1.450012,44.179993 -8.380005,88.220032 -21.26001,130.530029c-22.399963,74.329956 -62.630005,143.159973 -116.159973,199.359985c-51.570007,54.349976 -115.460022,96.950012 -185.559998,123.400024c-51.830017,19.709961 -106.980042,30.329956 -162.369995,32.099976l-29.290039,0c-56.869995,-1.789978 -113.48999,-12.98999 -166.519989,-33.679993c-62.950012,-24.450012 -120.830002,-61.850037 -168.970001,-109.210022c-52.289993,-51.109985 -93.140007,-113.859985 -118.640005,-182.399963c-19.17,-51.170044 -29.5,-105.530029 -31.23,-160.110046l0,-29.249969c1.14,-34.059998 5.47,-68.029999 13.35,-101.190002c17.13,-72.540009 50.940003,-141.040009 97.919999,-198.889999c42.649994,-52.62001 96.009933,-96.570007 156,-128.060013c67.029999,-35.500002 142.309998,-54.920002 218.079987,-57.210001l0.000031,0.00001z" id="svg_2"/>
  <path fill="none" d="m514.640015,0l485.359985,0l0,485.399994c-1.820007,-58.23999 -13.530029,-116.209991 -35.159973,-170.339996c-25.690002,-64.559998 -65.050049,-123.639999 -114.740051,-172.199997c-56.48999,-55.590004 -126.440002,-97.41 -202.179993,-120.76c-43.149963,-13.400001 -88.149963,-20.62 -133.279968,-22.1z" id="svg_3"/>
  <path fill="#ffffff" d="m485.230011,82.260002c77.369965,-2.760002 155.389984,16.360001 222.540009,54.939995c62.76001,35.790009 115.98999,88.029999 152.97998,150.080002c37.23999,62.200012 57.940002,134.230011 59.080017,206.730011c1.320007,55.690002 -8.690002,111.609985 -29.210022,163.399963c-31.880005,80.930054 -89.669983,151.280029 -162.72998,198.470032c-43.480042,28.219971 -92.23999,48.289978 -143.02002,58.75c-63.219971,13.049988 -129.419983,11.429993 -191.889984,-4.859985c-68.550018,-17.77002 -132.309998,-53.420044 -183.530014,-102.280029c-50.099991,-47.559998 -88.279999,-107.599976 -109.789986,-173.26001c-14.460014,-43.829956 -21.490013,-90.079956 -20.970001,-136.219971c0.599998,-60.100006 14.189987,-120.080017 39.910004,-174.430023c28.199989,-60.009979 70.890007,-113.110001 123.339989,-153.660049c69.179993,-53.859978 155.630005,-85.12001 243.290009,-87.660019l0,0.000023l0,0.000015l0,0.000023l0,0.000023z" id="svg_4"/>
  <path fill="#000000" d="m693.109985,224.330002c23.26001,0 46.51001,0.009995 69.76001,0c0.400024,7.119995 -0.159973,14.25 0.27002,21.369995c10.820007,-0.099991 21.649963,0.029999 32.47998,-0.059998c0.109985,21.000015 0.01001,42.009995 0.039978,63.020004c-10.940002,0.029999 -21.879944,-0.040009 -32.819946,0.040009c0.419983,16.099976 0.190002,32.22998 0.119995,48.339996c0.619995,12.970001 -0.490051,25.940002 0.159973,38.910004c-0.409973,51.009979 0.160034,102.009979 -0.190002,153.019958c0.160034,47.930054 0.289978,95.900024 -0.070007,143.830017c10.950012,0.460022 21.910034,-0.140015 32.850037,0.350037c-0.090027,20.889954 -0.02002,41.789978 -0.040039,62.690002c-10.809998,0.429993 -21.619995,0.029968 -32.440002,0.039978c-0.919983,7.969971 0.590027,16.099976 -0.529968,24.029968c-23.070007,0.320007 -46.309998,-0.190002 -69.440002,0.240051c-0.859985,-7.960022 0.059998,-15.970032 -0.150024,-23.950012c-35.369995,-0.609985 -70.769958,0.109985 -106.130005,-0.320007c-23.339966,0.419983 -46.679993,0.039978 -70.01001,0.140015c-71.789856,0.049988 -143.549866,-0.190002 -215.359985,0.109985c0,7.909973 -0.009979,15.820007 0.01001,23.72998c-22.97995,0.070007 -45.949921,0.119995 -68.919922,-0.01001c0.030014,-7.880005 -0.059998,-15.769958 0.050003,-23.649963c-12.800003,-0.710022 -25.669998,0.279968 -38.470001,-0.400024c0.119995,-20.899963 0.019989,-41.789978 0.049988,-62.690002c12.789993,-0.469971 25.590012,0.200012 38.37001,-0.25c-0.020004,-128.070007 0.040009,-256.139832 -0.020004,-384.20993c-12.339996,0.02005 -24.679977,0.03006 -37.019989,0c0.019989,-20.98996 0,-41.98996 0.009995,-62.97998c12.339996,-0.009995 24.690002,0 37.029999,0c0,-6.660004 -0.009995,-13.309998 0.01001,-19.970001c22.959991,-0.009995 45.919922,0.020004 68.879913,-0.009995c0.040009,6.649994 0.019989,13.310013 0.01001,19.959991c130.429993,0.050003 260.860016,0 391.279999,0.020004c-0.150024,-7.12001 0.339966,-14.220001 0.22998,-21.340012l0,-0.000015l0,-0.000031l0,-0.000015z" id="svg_5"/>
  <path fill="#ffffff" d="m301.609985,308.670013c130.420013,-0.029999 260.840027,0.039978 391.25,-0.040009c0.790039,8.089996 -0.309998,16.209991 0.23999,24.309998c-0.459961,24.01001 0.309998,48.040009 -0.199951,72.059998c0.279968,17.329987 -0.290039,34.670013 0.219971,52c-0.609985,25.01001 0.359985,50 -0.25,75c0.340027,33.340027 -0.089966,66.700012 0.210022,100.030029c-0.309998,20.379944 0.289978,40.759949 -0.330017,61.129944c-16.25,-0.47998 -32.5,0.080017 -48.73999,-0.22998c-107.679993,0.210022 -215.339996,-0.049988 -323,0.130005c-6.460022,-0.140015 -12.930023,-0.130005 -19.390015,-0.159973c-0.01001,-128.080017 -0.01001,-256.160034 -0.01001,-384.230011z" id="svg_6"/>
  <path fill="#ff0006" d="m491.420013,368.529999c31.299957,-1.720001 63.179962,7.700012 88.189972,26.700012c28.290039,21.119995 47.679993,53.849976 52.140015,88.910004c4.429993,32.22998 -3.25,66.039978 -21.679993,92.899963c-20.789978,31.02002 -55.130005,52.619995 -92.190002,57.490051c-36.73999,5.449951 -75.51001,-5.600037 -103.959991,-29.460022c-29.810028,-24.460022 -48.180023,-62.450012 -48.220001,-101.070007c-0.790009,-32.299988 11.049988,-64.640015 32.190002,-89.029999c12.469971,-14.640015 28.259979,-26.390015 45.719971,-34.429993c15,-6.990021 31.350006,-10.720001 47.810028,-12.01001z" id="svg_7"/>
  <path fill="none" d="m0,514.599976c1.73,54.580017 12.06,108.940002 31.23,160.110046c25.5,68.539978 66.350002,131.289978 118.639996,182.399963c48.139999,47.359985 106.020004,84.76001 168.970001,109.210022c53.029999,20.690002 109.649994,31.890015 166.519989,33.679993l-485.359985,0l0,-485.400024z" id="svg_8"/>
  <path fill="none" d="m978.73999,645.140015c12.880005,-42.309998 19.809998,-86.350037 21.26001,-130.530029l0,485.390015l-485.349976,0c55.389954,-1.77002 110.539978,-12.390015 162.369995,-32.099976c70.099976,-26.450012 133.98999,-69.050049 185.559998,-123.400024c53.529968,-56.200012 93.76001,-125.030029 116.159973,-199.359985z" id="svg_9"/>
 </g>
</svg>