<?xml version="1.0" encoding="UTF-8" ?>
<!DOCTYPE svg PUBLIC "-//W3C//DTD SVG 1.1//EN" "http://www.w3.org/Graphics/SVG/1.1/DTD/svg11.dtd">
<svg width="1414pt" height="707pt" viewBox="0 0 1414 707" version="1.1" xmlns="http://www.w3.org/2000/svg">
<path fill="#000000" d=" M 0.00 0.00 L 266.13 0.00 C 280.19 27.41 287.32 58.20 287.60 88.97 C 287.59 123.78 278.50 158.61 261.02 188.76 C 244.96 216.67 222.06 240.58 194.99 258.00 C 166.33 276.45 132.99 287.59 98.97 289.94 C 65.26 292.36 30.78 286.69 0.00 272.60 L 0.00 0.00 Z" />
<path fill="#ffffff" d=" M 266.13 0.00 L 1036.04 0.00 C 1032.37 11.82 1028.79 23.67 1025.17 35.50 C 984.39 25.45 943.60 15.44 902.81 5.42 C 893.78 38.98 884.69 72.51 875.70 106.07 C 845.34 98.87 815.20 90.72 784.90 83.28 C 780.49 126.56 775.94 169.84 771.23 213.09 C 787.75 182.18 804.68 151.49 821.20 120.59 C 854.50 126.91 887.73 133.68 921.04 139.93 C 929.95 107.57 939.20 75.31 948.04 42.93 C 962.46 46.54 976.63 51.10 990.96 55.09 C 1017.50 62.70 1043.97 70.58 1070.56 78.00 C 1080.43 52.00 1090.31 26.01 1100.15 0.00 L 1316.73 0.00 C 1296.08 32.43 1290.40 73.84 1301.52 110.63 C 1311.26 143.79 1334.16 172.55 1363.60 190.47 C 1379.02 200.05 1396.29 206.27 1414.00 210.01 L 1414.00 580.11 C 1391.60 553.80 1360.47 535.32 1326.88 527.45 C 1284.32 517.33 1237.87 523.86 1200.20 546.26 C 1172.96 562.30 1150.41 586.54 1137.44 615.46 C 1124.54 643.90 1121.31 676.65 1128.78 707.00 L 686.37 707.00 C 684.99 689.53 679.27 672.32 669.08 657.99 C 657.39 641.24 639.81 628.50 619.96 623.40 C 605.35 619.52 589.71 619.88 575.26 624.28 C 557.32 629.66 541.50 641.31 530.46 656.36 C 519.63 671.01 513.26 688.84 512.11 707.00 L 0.00 707.00 L 0.00 630.39 C 13.77 643.07 30.62 652.44 48.78 657.09 C 80.28 665.42 115.18 658.68 141.54 639.58 C 168.81 620.20 187.02 589.08 191.54 556.02 C 195.99 525.34 189.02 493.05 171.78 467.22 C 155.37 442.26 129.27 423.58 99.94 417.35 C 64.72 409.22 26.27 420.48 0.00 445.04 L 0.00 272.60 C 30.78 286.69 65.26 292.36 98.97 289.94 C 132.99 287.59 166.33 276.45 194.99 258.00 C 222.06 240.58 244.96 216.67 261.02 188.76 C 278.50 158.61 287.59 123.78 287.60 88.97 C 287.32 58.20 280.19 27.41 266.13 0.00 Z" />
<path fill="#00feff" d=" M 1036.04 0.00 L 1100.15 0.00 C 1090.31 26.01 1080.43 52.00 1070.56 78.00 C 1043.97 70.58 1017.50 62.70 990.96 55.09 C 976.63 51.10 962.46 46.54 948.04 42.93 C 939.20 75.31 929.95 107.57 921.04 139.93 C 887.73 133.68 854.50 126.91 821.20 120.59 C 804.68 151.49 787.75 182.18 771.23 213.09 C 775.94 169.84 780.49 126.56 784.90 83.28 C 815.20 90.72 845.34 98.87 875.70 106.07 C 884.69 72.51 893.78 38.98 902.81 5.42 C 943.60 15.44 984.39 25.45 1025.17 35.50 C 1028.79 23.67 1032.37 11.82 1036.04 0.00 Z" />
<path fill="#989494" d=" M 1316.73 0.00 L 1414.00 0.00 L 1414.00 210.01 C 1396.29 206.27 1379.02 200.05 1363.60 190.47 C 1334.16 172.55 1311.26 143.79 1301.52 110.63 C 1290.40 73.84 1296.08 32.43 1316.73 0.00 Z" />
<path fill="#989494" d=" M 515.26 37.27 C 530.14 34.80 545.80 37.63 558.95 45.01 C 573.04 52.83 584.16 65.60 590.45 80.38 C 598.21 98.50 598.79 119.58 591.98 138.08 C 586.81 152.37 577.24 165.09 564.72 173.75 C 553.44 181.59 539.76 186.08 525.99 185.86 C 508.14 186.14 490.57 178.50 477.96 166.01 C 466.25 154.61 458.63 139.24 456.20 123.13 C 453.47 105.16 457.01 86.20 466.58 70.69 C 477.02 53.28 495.10 40.44 515.26 37.27 Z" />
<path fill="#00feff" d=" M 287.30 171.95 C 303.01 167.77 318.65 163.35 334.32 159.04 C 343.23 187.89 352.24 216.72 361.03 245.61 C 391.21 238.53 421.25 230.79 451.46 223.84 C 458.29 248.34 464.77 272.93 471.62 297.42 C 493.85 291.64 516.19 286.29 538.42 280.52 C 541.89 312.10 545.17 343.71 548.55 375.30 C 536.40 352.85 523.95 330.55 511.85 308.06 C 487.11 312.09 462.63 317.65 437.94 321.92 C 431.38 298.27 424.54 274.71 418.02 251.05 C 387.82 259.40 357.76 268.25 327.63 276.80 C 314.08 241.89 300.88 206.85 287.30 171.95 Z" />
<path fill="#000000" d=" M 1058.05 164.97 C 1086.12 161.17 1115.49 174.21 1131.75 197.35 C 1149.66 221.75 1151.67 256.48 1136.81 282.83 C 1123.61 307.21 1096.85 323.72 1069.02 323.75 C 1044.11 324.47 1019.47 312.11 1004.69 292.13 C 994.30 278.38 988.69 261.18 988.70 243.97 C 988.73 227.22 994.11 210.50 1004.02 196.98 C 1016.64 179.51 1036.60 167.51 1058.05 164.97 Z" />
<path fill="#00f7ff" d=" M 688.55 209.86 C 723.82 205.04 760.67 215.40 788.74 237.18 C 815.30 257.55 834.24 287.42 841.80 319.99 C 850.61 357.13 845.04 397.63 825.78 430.67 C 809.18 459.56 782.35 482.65 750.84 493.73 C 737.42 498.60 723.20 500.86 708.99 501.68 C 679.62 502.03 650.12 493.06 626.33 475.72 C 598.38 455.69 578.28 425.29 570.12 391.95 C 560.16 352.25 566.89 308.52 589.09 274.03 C 610.79 239.55 647.91 214.81 688.55 209.86 Z" />
<path fill="#fdfbfb" d=" M 682.92 232.99 C 686.97 232.55 690.97 231.65 695.02 231.18 C 702.36 231.05 709.72 231.22 717.07 231.02 C 721.95 232.33 727.06 232.44 731.95 233.74 C 755.09 238.77 776.27 251.35 792.67 268.32 C 806.79 283.42 817.34 301.92 822.58 321.96 C 825.24 332.07 827.33 342.49 826.80 353.00 C 826.53 359.65 827.52 366.42 826.01 372.98 C 822.28 402.28 808.01 430.22 786.01 450.01 C 764.11 469.78 734.67 481.90 704.98 480.65 C 682.62 481.39 660.40 474.22 641.62 462.29 C 618.21 447.63 600.54 424.48 591.49 398.48 C 589.56 392.43 587.85 386.31 586.55 380.10 C 585.78 376.80 586.11 373.23 584.64 370.13 C 584.43 360.70 584.44 351.25 584.64 341.82 C 586.15 338.75 585.71 335.18 586.53 331.91 C 589.19 319.22 593.24 306.75 599.38 295.30 C 607.19 281.45 616.89 268.36 629.52 258.55 C 644.74 245.67 663.36 236.83 682.92 232.99 Z" />
<path fill="#060000" d=" M 633.77 275.40 C 640.74 275.34 647.71 275.38 654.68 275.37 C 654.68 278.85 654.68 282.33 654.64 285.82 C 658.76 285.93 662.88 285.87 667.01 285.88 C 676.01 285.75 685.00 286.18 694.00 285.86 C 702.66 286.20 711.32 285.73 719.99 285.89 C 721.32 285.89 722.66 285.89 724.01 285.89 C 736.39 285.84 748.78 285.96 761.17 285.82 C 761.16 282.34 761.16 278.85 761.17 275.37 C 768.06 275.37 774.96 275.37 781.85 275.37 C 781.85 278.85 781.85 282.33 781.85 285.82 C 787.67 286.04 793.51 285.59 799.33 286.17 C 799.25 293.29 799.30 300.41 799.29 307.54 C 793.48 307.57 787.66 307.51 781.85 307.58 C 781.85 338.90 781.86 370.22 781.85 401.54 C 787.66 401.63 793.47 401.55 799.29 401.59 C 799.28 408.79 799.31 415.99 799.28 423.20 C 793.46 423.24 787.64 423.10 781.83 423.30 C 781.87 427.72 781.85 432.15 781.85 436.58 C 774.95 436.58 768.06 436.58 761.17 436.58 C 761.16 432.14 761.15 427.70 761.17 423.26 C 725.67 423.12 690.17 423.24 654.68 423.20 C 654.67 427.40 654.67 431.60 654.68 435.80 C 647.71 435.79 640.73 435.83 633.77 435.77 C 633.77 431.58 633.77 427.39 633.77 423.20 C 626.62 423.20 619.47 423.20 612.33 423.21 C 612.25 416.00 612.31 408.79 612.29 401.58 C 619.45 401.58 626.61 401.58 633.77 401.58 C 633.78 370.24 633.77 338.90 633.78 307.55 C 626.61 307.54 619.45 307.55 612.29 307.55 C 612.31 300.32 612.23 293.09 612.35 285.87 C 619.49 285.91 626.63 285.87 633.77 285.88 C 633.77 282.38 633.77 278.89 633.77 275.40 Z" />
<path fill="#00feff" d=" M 965.71 275.20 C 973.35 277.71 981.08 279.91 988.74 282.40 C 982.10 301.42 975.58 320.50 969.07 339.57 C 954.32 334.88 939.59 330.15 924.85 325.45 C 921.67 338.33 918.31 351.15 915.15 364.03 C 903.01 361.98 891.07 358.89 879.00 356.50 C 873.27 368.88 866.68 380.85 861.26 393.36 C 862.18 376.16 864.53 359.06 865.80 341.88 C 876.87 344.23 887.64 347.81 898.56 350.75 C 902.02 337.36 905.05 323.87 908.53 310.48 C 923.16 314.63 937.89 318.42 952.52 322.54 C 957.06 306.80 961.31 290.98 965.71 275.20 Z" />
<path fill="#fdfbfb" d=" M 654.68 307.55 C 690.17 307.56 725.67 307.51 761.17 307.58 C 761.16 338.90 761.16 370.22 761.17 401.54 C 725.67 401.63 690.17 401.56 654.68 401.58 C 654.68 370.24 654.68 338.89 654.68 307.55 Z" />
<path fill="#ff0303" d=" M 701.43 326.52 C 715.98 323.14 731.62 333.14 735.27 347.49 C 739.32 361.00 732.10 376.69 719.18 382.35 C 709.35 386.91 696.99 385.31 688.70 378.29 C 678.82 370.36 675.37 355.80 680.23 344.17 C 683.78 335.25 691.97 328.32 701.43 326.52 Z" />
<path fill="#00feff" d=" M 498.81 450.45 C 515.32 434.15 531.88 417.89 548.50 401.70 C 544.83 420.43 541.11 439.14 537.42 457.86 C 536.57 462.05 535.93 466.30 534.71 470.41 C 504.70 466.05 474.61 462.14 444.56 458.15 C 435.51 475.97 426.56 493.84 417.47 511.64 C 376.87 506.22 336.24 501.09 295.66 495.59 C 283.39 516.54 271.45 537.68 259.31 558.70 C 238.24 555.29 217.09 552.36 195.98 549.18 C 214.05 523.85 232.15 498.53 250.13 473.14 C 290.89 479.04 331.55 485.67 372.27 491.77 C 381.18 474.60 390.38 457.57 399.14 440.31 C 432.39 443.29 465.57 447.19 498.81 450.45 Z" />
<path fill="#989595" d=" M 0.00 445.04 C 26.27 420.48 64.72 409.22 99.94 417.35 C 129.27 423.58 155.37 442.26 171.78 467.22 C 189.02 493.05 195.99 525.34 191.54 556.02 C 187.02 589.08 168.81 620.20 141.54 639.58 C 115.18 658.68 80.28 665.42 48.78 657.09 C 30.62 652.44 13.77 643.07 0.00 630.39 L 0.00 445.04 Z" />
<path fill="#989494" d=" M 920.49 450.71 C 934.36 446.92 949.98 453.14 957.81 465.11 C 964.89 475.37 965.88 489.41 960.62 500.67 C 954.71 513.72 940.29 522.46 925.94 520.92 C 914.38 520.03 903.78 512.72 898.34 502.58 C 891.67 490.42 892.83 474.38 901.39 463.43 C 906.09 457.21 912.93 452.63 920.49 450.71 Z" />
<path fill="#00feff" d=" M 761.04 501.90 C 777.41 519.77 793.84 537.60 810.24 555.45 C 843.12 551.82 875.95 547.64 908.85 544.31 C 914.67 557.24 920.97 569.95 926.96 582.80 C 929.98 588.68 932.32 594.95 935.69 600.63 C 975.89 593.94 1016.05 586.91 1056.25 580.18 C 1074.13 607.96 1091.94 635.78 1109.94 663.48 C 1089.02 667.08 1068.06 670.49 1047.10 673.84 C 1035.40 650.88 1023.31 628.11 1011.60 605.15 C 991.37 607.51 971.27 610.94 951.08 613.69 C 930.97 616.64 910.84 619.44 890.74 622.49 C 881.58 602.93 872.98 583.11 863.59 563.67 C 833.96 568.53 804.17 572.49 774.52 577.25 C 769.85 552.17 765.44 527.03 761.04 501.90 Z" />
<path fill="#000000" d=" M 1200.20 546.26 C 1237.87 523.86 1284.32 517.33 1326.88 527.45 C 1360.47 535.32 1391.60 553.80 1414.00 580.11 L 1414.00 707.00 L 1128.78 707.00 C 1121.31 676.65 1124.54 643.90 1137.44 615.46 C 1150.41 586.54 1172.96 562.30 1200.20 546.26 Z" />
<path fill="#000000" d=" M 575.26 624.28 C 589.71 619.88 605.35 619.52 619.96 623.40 C 639.81 628.50 657.39 641.24 669.08 657.99 C 679.27 672.32 684.99 689.53 686.37 707.00 L 512.11 707.00 C 513.26 688.84 519.63 671.01 530.46 656.36 C 541.50 641.31 557.32 629.66 575.26 624.28 Z" />
</svg>
